<?xml version="1.0" encoding="UTF-8" standalone="no"?>
<!DOCTYPE svg PUBLIC "-//W3C//DTD SVG 1.1//EN"
 "http://www.w3.org/Graphics/SVG/1.1/DTD/svg11.dtd">
<!-- Generated by graphviz version 2.49.1 (20210923.0004)
 -->
<!-- Title: ninja Pages: 1 -->
<svg width="684pt" height="896pt"
 viewBox="0.00 0.00 683.99 896.22" xmlns="http://www.w3.org/2000/svg" xmlns:xlink="http://www.w3.org/1999/xlink">
<g id="graph0" class="graph" transform="scale(1 1) rotate(0) translate(4 892.22)">
<title>ninja</title>
<polygon fill="white" stroke="transparent" points="-4,4 -4,-892.22 679.99,-892.22 679.99,4 -4,4"/>
<!-- 0x7f91aec0b7d0 -->
<g id="node1" class="node">
<title>0x7f91aec0b7d0</title>
<polygon fill="none" stroke="black" points="55.99,-888.22 1.99,-888.22 1.99,-869.22 55.99,-869.22 55.99,-888.22"/>
<text text-anchor="middle" x="28.99" y="-876.22" font-family="Times,serif" font-size="10.00">all</text>
</g>
<!-- 0x7f91aec0b220 -->
<g id="node2" class="node">
<title>0x7f91aec0b220</title>
<ellipse fill="none" stroke="black" cx="28.99" cy="-818.79" rx="28.98" ry="13.37"/>
<text text-anchor="middle" x="28.99" y="-816.29" font-family="Times,serif" font-size="10.00">phony</text>
</g>
<!-- 0x7f91aec0b220&#45;&gt;0x7f91aec0b7d0 -->
<g id="edge1" class="edge">
<title>0x7f91aec0b220&#45;&gt;0x7f91aec0b7d0</title>
<path fill="none" stroke="black" d="M28.99,-832.36C28.99,-840.04 28.99,-850.02 28.99,-858.66"/>
<polygon fill="black" stroke="black" points="25.49,-858.94 28.99,-868.94 32.49,-858.94 25.49,-858.94"/>
</g>
<!-- 0x7f91aec09340 -->
<g id="node3" class="node">
<title>0x7f91aec09340</title>
<polygon fill="none" stroke="black" points="316.99,-768.35 262.99,-768.35 262.99,-749.35 316.99,-749.35 316.99,-768.35"/>
<text text-anchor="middle" x="289.99" y="-756.35" font-family="Times,serif" font-size="10.00">myapp</text>
</g>
<!-- 0x7f91aec09340&#45;&gt;0x7f91aec0b220 -->
<g id="edge2" class="edge">
<title>0x7f91aec09340&#45;&gt;0x7f91aec0b220</title>
<path fill="none" stroke="black" d="M262.55,-765.94C211.77,-777.21 103.83,-801.17 54.52,-812.12"/>
</g>
<!-- 0x7f91aec08330 -->
<g id="node4" class="node">
<title>0x7f91aec08330</title>
<polygon fill="none" stroke="black" points="244.99,-270.87 190.99,-270.87 190.99,-251.87 244.99,-251.87 244.99,-270.87"/>
<text text-anchor="middle" x="217.99" y="-258.87" font-family="Times,serif" font-size="10.00">generator</text>
</g>
<!-- 0x7f91aec08330&#45;&gt;0x7f91aec0b220 -->
<g id="edge3" class="edge">
<title>0x7f91aec08330&#45;&gt;0x7f91aec0b220</title>
<path fill="none" stroke="black" d="M190.88,-264.48C136.02,-269.51 16.99,-284.53 16.99,-320.31 16.99,-320.31 16.99,-320.31 16.99,-759.85 16.99,-775.67 21.33,-793.42 24.79,-805.06"/>
</g>
<!-- 0x7f91aec092d0 -->
<g id="node5" class="node">
<title>0x7f91aec092d0</title>
<ellipse fill="none" stroke="black" cx="453.99" cy="-698.92" rx="154.3" ry="13.37"/>
<text text-anchor="middle" x="453.99" y="-696.42" font-family="Times,serif" font-size="10.00">CXX_EXECUTABLE_LINKER__myapp_Debug</text>
</g>
<!-- 0x7f91aec08330&#45;&gt;0x7f91aec092d0 -->
<g id="edge7" class="edge">
<title>0x7f91aec08330&#45;&gt;0x7f91aec092d0</title>
<path fill="none" stroke="black" stroke-dasharray="1,5" d="M245.01,-262.08C317.01,-262.05 507.99,-266.97 507.99,-320.31 507.99,-320.31 507.99,-320.31 507.99,-639.98 507.99,-659.64 491.14,-675.42 476.27,-685.51"/>
</g>
<!-- 0x7f91aec0b480 -->
<g id="node11" class="node">
<title>0x7f91aec0b480</title>
<ellipse fill="none" stroke="black" cx="217.99" cy="-321.31" rx="82.05" ry="13.37"/>
<text text-anchor="middle" x="217.99" y="-318.81" font-family="Times,serif" font-size="10.00">CUSTOM_COMMAND</text>
</g>
<!-- 0x7f91aec08330&#45;&gt;0x7f91aec0b480 -->
<g id="edge13" class="edge">
<title>0x7f91aec08330&#45;&gt;0x7f91aec0b480</title>
<path fill="none" stroke="black" d="M213.04,-270.92C210.92,-280.61 210.68,-296.52 212.3,-307.65"/>
</g>
<!-- 0x7f91aec08330&#45;&gt;0x7f91aec0b480 -->
<g id="edge15" class="edge">
<title>0x7f91aec08330&#45;&gt;0x7f91aec0b480</title>
<path fill="none" stroke="black" stroke-dasharray="1,5" d="M222.95,-270.92C225.06,-280.61 225.31,-296.52 223.68,-307.65"/>
</g>
<!-- 0x7f91aec085f0 -->
<g id="node19" class="node">
<title>0x7f91aec085f0</title>
<ellipse fill="none" stroke="black" cx="79.99" cy="-459.18" rx="28.98" ry="13.37"/>
<text text-anchor="middle" x="79.99" y="-456.68" font-family="Times,serif" font-size="10.00">phony</text>
</g>
<!-- 0x7f91aec08330&#45;&gt;0x7f91aec085f0 -->
<g id="edge23" class="edge">
<title>0x7f91aec08330&#45;&gt;0x7f91aec085f0</title>
<path fill="none" stroke="black" stroke-dasharray="1,5" d="M191.15,-270.96C171.54,-278.3 145.29,-290.46 126.99,-307.87 91.3,-341.84 87.97,-359.96 80.99,-408.74 79.22,-421.15 79.14,-435.48 79.4,-445.51"/>
</g>
<!-- 0x7f91aec092d0&#45;&gt;0x7f91aec09340 -->
<g id="edge4" class="edge">
<title>0x7f91aec092d0&#45;&gt;0x7f91aec09340</title>
<path fill="none" stroke="black" d="M419.61,-712.06C391.5,-721.99 351.97,-735.95 323.97,-745.85"/>
<polygon fill="black" stroke="black" points="322.49,-742.66 314.22,-749.29 324.82,-749.26 322.49,-742.66"/>
</g>
<!-- 0x7f91aec08e20 -->
<g id="node6" class="node">
<title>0x7f91aec08e20</title>
<polygon fill="none" stroke="black" points="479.49,-648.48 98.49,-648.48 98.49,-629.48 479.49,-629.48 479.49,-648.48"/>
<text text-anchor="middle" x="288.99" y="-636.48" font-family="Times,serif" font-size="10.00">CMakeFiles/myapp.dir/cmake&#45;build&#45;tmp&#45;x86_64&#45;Debug/install/.generated/generated.cpp.o</text>
</g>
<!-- 0x7f91aec08e20&#45;&gt;0x7f91aec092d0 -->
<g id="edge5" class="edge">
<title>0x7f91aec08e20&#45;&gt;0x7f91aec092d0</title>
<path fill="none" stroke="black" d="M313.34,-648.53C341.4,-658.38 387.71,-674.64 419.48,-685.8"/>
</g>
<!-- 0x7f91aec093a0 -->
<g id="node7" class="node">
<title>0x7f91aec093a0</title>
<polygon fill="none" stroke="black" points="675.99,-648.48 535.99,-648.48 535.99,-629.48 675.99,-629.48 675.99,-648.48"/>
<text text-anchor="middle" x="605.99" y="-636.48" font-family="Times,serif" font-size="10.00">/usr/local/lib/libfmt.8.0.1.dylib</text>
</g>
<!-- 0x7f91aec093a0&#45;&gt;0x7f91aec092d0 -->
<g id="edge6" class="edge">
<title>0x7f91aec093a0&#45;&gt;0x7f91aec092d0</title>
<path fill="none" stroke="black" d="M583.56,-648.53C557.8,-658.35 515.32,-674.54 486.06,-685.69"/>
</g>
<!-- 0x7f91aec08d50 -->
<g id="node8" class="node">
<title>0x7f91aec08d50</title>
<ellipse fill="none" stroke="black" cx="288.99" cy="-579.05" rx="114.6" ry="13.37"/>
<text text-anchor="middle" x="288.99" y="-576.55" font-family="Times,serif" font-size="10.00">CXX_COMPILER__myapp_Debug</text>
</g>
<!-- 0x7f91aec08d50&#45;&gt;0x7f91aec08e20 -->
<g id="edge8" class="edge">
<title>0x7f91aec08d50&#45;&gt;0x7f91aec08e20</title>
<path fill="none" stroke="black" d="M288.99,-592.62C288.99,-600.3 288.99,-610.28 288.99,-618.92"/>
<polygon fill="black" stroke="black" points="285.49,-619.2 288.99,-629.2 292.49,-619.2 285.49,-619.2"/>
</g>
<!-- 0x7f91aec08e80 -->
<g id="node9" class="node">
<title>0x7f91aec08e80</title>
<polygon fill="none" stroke="black" points="492.49,-427.74 95.49,-427.74 95.49,-408.74 492.49,-408.74 492.49,-427.74"/>
<text text-anchor="middle" x="293.99" y="-415.74" font-family="Times,serif" font-size="10.00">/Users/clausklein/cmake/tmp/cmake&#45;build&#45;tmp&#45;x86_64&#45;Debug/install/.generated/generated.cpp</text>
</g>
<!-- 0x7f91aec08e80&#45;&gt;0x7f91aec08d50 -->
<g id="edge9" class="edge">
<title>0x7f91aec08e80&#45;&gt;0x7f91aec08d50</title>
<path fill="none" stroke="black" d="M293.72,-427.78C292.89,-454.06 290.38,-533.88 289.4,-565.22"/>
</g>
<!-- 0x7f91aec086a0 -->
<g id="node10" class="node">
<title>0x7f91aec086a0</title>
<polygon fill="none" stroke="black" points="252.99,-528.61 56.99,-528.61 56.99,-509.61 252.99,-509.61 252.99,-528.61"/>
<text text-anchor="middle" x="154.99" y="-516.61" font-family="Times,serif" font-size="10.00">cmake_object_order_depends_target_myapp</text>
</g>
<!-- 0x7f91aec086a0&#45;&gt;0x7f91aec08d50 -->
<g id="edge10" class="edge">
<title>0x7f91aec086a0&#45;&gt;0x7f91aec08d50</title>
<path fill="none" stroke="black" stroke-dasharray="1,5" d="M174.76,-528.66C197.48,-538.48 234.93,-554.67 260.72,-565.82"/>
</g>
<!-- 0x7f91aec0b480&#45;&gt;0x7f91aec08e80 -->
<g id="edge12" class="edge">
<title>0x7f91aec0b480&#45;&gt;0x7f91aec08e80</title>
<path fill="none" stroke="black" d="M227.93,-334.72C241.4,-351.55 265.52,-381.68 280.59,-400.5"/>
<polygon fill="black" stroke="black" points="278.01,-402.88 286.99,-408.49 283.47,-398.5 278.01,-402.88"/>
</g>
<!-- 0x7f91aec08760 -->
<g id="node12" class="node">
<title>0x7f91aec08760</title>
<polygon fill="none" stroke="black" points="215.99,-390.74 99.99,-390.74 99.99,-371.74 215.99,-371.74 215.99,-390.74"/>
<text text-anchor="middle" x="157.99" y="-378.74" font-family="Times,serif" font-size="10.00">.generated/generated.cpp</text>
</g>
<!-- 0x7f91aec0b480&#45;&gt;0x7f91aec08760 -->
<g id="edge11" class="edge">
<title>0x7f91aec0b480&#45;&gt;0x7f91aec08760</title>
<path fill="none" stroke="black" d="M205.27,-334.59C196.24,-343.31 184.04,-355.09 174.3,-364.5"/>
<polygon fill="black" stroke="black" points="171.57,-362.26 166.81,-371.72 176.44,-367.29 171.57,-362.26"/>
</g>
<!-- 0x7f91aec08760&#45;&gt;0x7f91aec085f0 -->
<g id="edge22" class="edge">
<title>0x7f91aec08760&#45;&gt;0x7f91aec085f0</title>
<path fill="none" stroke="black" stroke-dasharray="1,5" d="M121.9,-390.76C111.68,-394.73 101.35,-400.47 93.99,-408.74 84.98,-418.87 81.73,-434.4 80.58,-445.34"/>
</g>
<!-- 0x7f91aec0b4f0 -->
<g id="node13" class="node">
<title>0x7f91aec0b4f0</title>
<polygon fill="none" stroke="black" points="591.49,-270.87 474.49,-270.87 474.49,-251.87 591.49,-251.87 591.49,-270.87"/>
<text text-anchor="middle" x="532.99" y="-258.87" font-family="Times,serif" font-size="10.00">../../someInputFile.cpp.in</text>
</g>
<!-- 0x7f91aec0b4f0&#45;&gt;0x7f91aec0b480 -->
<g id="edge14" class="edge">
<title>0x7f91aec0b4f0&#45;&gt;0x7f91aec0b480</title>
<path fill="none" stroke="black" d="M486.51,-270.92C428.58,-281.57 329.88,-299.73 269.64,-310.81"/>
</g>
<!-- 0x7f91aec0a480 -->
<g id="node14" class="node">
<title>0x7f91aec0a480</title>
<polygon fill="none" stroke="black" points="309.49,-204.87 126.49,-204.87 126.49,-185.87 309.49,-185.87 309.49,-204.87"/>
<text text-anchor="middle" x="217.99" y="-192.87" font-family="Times,serif" font-size="10.00">CMakeFiles/generator.dir/generator.cpp.o</text>
</g>
<!-- 0x7f91aec0a480&#45;&gt;0x7f91aec08330 -->
<g id="edge16" class="edge">
<title>0x7f91aec0a480&#45;&gt;0x7f91aec08330</title>
<path fill="none" stroke="black" d="M217.99,-205C217.99,-214.21 217.99,-229.08 217.99,-241.1"/>
<polygon fill="black" stroke="black" points="214.49,-241.46 217.99,-251.46 221.49,-241.46 214.49,-241.46"/>
<text text-anchor="middle" x="325.49" y="-225.87" font-family="Times,serif" font-size="10.00"> CXX_EXECUTABLE_LINKER__generator_Debug</text>
</g>
<!-- 0x7f91aec0a310 -->
<g id="node15" class="node">
<title>0x7f91aec0a310</title>
<ellipse fill="none" stroke="black" cx="217.99" cy="-135.44" rx="122.16" ry="13.37"/>
<text text-anchor="middle" x="217.99" y="-132.94" font-family="Times,serif" font-size="10.00">CXX_COMPILER__generator_Debug</text>
</g>
<!-- 0x7f91aec0a310&#45;&gt;0x7f91aec0a480 -->
<g id="edge17" class="edge">
<title>0x7f91aec0a310&#45;&gt;0x7f91aec0a480</title>
<path fill="none" stroke="black" d="M217.99,-149.01C217.99,-156.69 217.99,-166.67 217.99,-175.31"/>
<polygon fill="black" stroke="black" points="214.49,-175.59 217.99,-185.59 221.49,-175.59 214.49,-175.59"/>
</g>
<!-- 0x7f91aec0a4e0 -->
<g id="node16" class="node">
<title>0x7f91aec0a4e0</title>
<polygon fill="none" stroke="black" points="300.49,-85 111.49,-85 111.49,-66 300.49,-66 300.49,-85"/>
<text text-anchor="middle" x="205.99" y="-73" font-family="Times,serif" font-size="10.00">/Users/clausklein/cmake/tmp/generator.cpp</text>
</g>
<!-- 0x7f91aec0a4e0&#45;&gt;0x7f91aec0a310 -->
<g id="edge18" class="edge">
<title>0x7f91aec0a4e0&#45;&gt;0x7f91aec0a310</title>
<path fill="none" stroke="black" d="M207.76,-85.05C209.77,-94.74 213.06,-110.65 215.37,-121.78"/>
</g>
<!-- 0x7f91aec09ea0 -->
<g id="node17" class="node">
<title>0x7f91aec09ea0</title>
<polygon fill="none" stroke="black" points="524.99,-85 318.99,-85 318.99,-66 524.99,-66 524.99,-85"/>
<text text-anchor="middle" x="421.99" y="-73" font-family="Times,serif" font-size="10.00">cmake_object_order_depends_target_generator</text>
</g>
<!-- 0x7f91aec09ea0&#45;&gt;0x7f91aec0a310 -->
<g id="edge19" class="edge">
<title>0x7f91aec09ea0&#45;&gt;0x7f91aec0a310</title>
<path fill="none" stroke="black" stroke-dasharray="1,5" d="M391.89,-85.05C356.76,-95.03 298.47,-111.58 259.16,-122.74"/>
</g>
<!-- 0x7f91aec09f60 -->
<g id="node18" class="node">
<title>0x7f91aec09f60</title>
<polygon fill="none" stroke="black" points="481.49,-19 362.49,-19 362.49,0 481.49,0 481.49,-19"/>
<text text-anchor="middle" x="421.99" y="-7" font-family="Times,serif" font-size="10.00">CMakeFiles/generator.dir</text>
</g>
<!-- 0x7f91aec09f60&#45;&gt;0x7f91aec09ea0 -->
<g id="edge20" class="edge">
<title>0x7f91aec09f60&#45;&gt;0x7f91aec09ea0</title>
<path fill="none" stroke="black" d="M421.99,-19.13C421.99,-28.34 421.99,-43.21 421.99,-55.23"/>
<polygon fill="black" stroke="black" points="418.49,-55.59 421.99,-65.59 425.49,-55.59 418.49,-55.59"/>
<text text-anchor="middle" x="435.99" y="-40" font-family="Times,serif" font-size="10.00"> phony</text>
</g>
<!-- 0x7f91aec085f0&#45;&gt;0x7f91aec086a0 -->
<g id="edge21" class="edge">
<title>0x7f91aec085f0&#45;&gt;0x7f91aec086a0</title>
<path fill="none" stroke="black" d="M94.1,-471.07C105.82,-480.13 122.62,-493.1 135.61,-503.14"/>
<polygon fill="black" stroke="black" points="133.82,-506.18 143.88,-509.52 138.1,-500.64 133.82,-506.18"/>
</g>
</g>
</svg>
