<?xml version="1.0" encoding="UTF-8" standalone="no"?>
<!DOCTYPE svg PUBLIC "-//W3C//DTD SVG 1.1//EN"
 "http://www.w3.org/Graphics/SVG/1.1/DTD/svg11.dtd">
<!-- Generated by graphviz version 2.49.1 (20210923.0004)
 -->
<!-- Title: MyProj Pages: 1 -->
<svg width="855pt" height="275pt"
 viewBox="0.00 0.00 855.31 275.00" xmlns="http://www.w3.org/2000/svg" xmlns:xlink="http://www.w3.org/1999/xlink">
<g id="graph0" class="graph" transform="scale(1 1) rotate(0) translate(4 271)">
<title>MyProj</title>
<polygon fill="white" stroke="transparent" points="-4,4 -4,-271 851.31,-271 851.31,4 -4,4"/>
<g id="clust1" class="cluster">
<title>clusterLegend</title>
<polygon fill="none" stroke="black" points="8,-8 8,-259 542,-259 542,-8 8,-8"/>
<text text-anchor="middle" x="275" y="-243.8" font-family="Times,serif" font-size="14.00">Legend</text>
</g>
<!-- legendNode0 -->
<g id="node1" class="node">
<title>legendNode0</title>
<polygon fill="none" stroke="black" points="288.24,-192.05 291.04,-192.15 293.82,-192.3 296.55,-192.49 299.24,-192.74 301.86,-193.03 304.41,-193.36 306.87,-193.75 309.25,-194.18 311.52,-194.65 313.69,-195.16 315.74,-195.71 317.66,-196.31 319.46,-196.94 321.12,-197.61 322.65,-198.31 324.03,-199.04 325.26,-199.8 326.35,-200.59 327.28,-201.41 328.07,-202.25 328.7,-203.11 329.19,-203.99 329.53,-204.89 329.73,-205.8 329.78,-206.72 329.69,-207.65 329.47,-208.59 329.12,-209.53 328.64,-210.47 328.04,-211.41 327.33,-212.35 326.51,-213.28 325.58,-214.2 324.56,-215.11 323.45,-216.01 322.25,-216.89 320.98,-217.75 319.63,-218.59 318.21,-219.41 316.74,-220.2 315.21,-220.96 313.63,-221.69 312.01,-222.39 310.35,-223.06 308.65,-223.69 306.92,-224.29 305.17,-224.84 303.39,-225.35 301.6,-225.82 299.78,-226.25 297.95,-226.64 296.12,-226.97 294.27,-227.26 292.41,-227.51 290.55,-227.7 288.68,-227.85 286.81,-227.95 284.94,-228 283.06,-228 281.19,-227.95 279.32,-227.85 277.45,-227.7 275.59,-227.51 273.73,-227.26 271.88,-226.97 270.05,-226.64 268.22,-226.25 266.4,-225.82 264.61,-225.35 262.83,-224.84 261.08,-224.29 259.35,-223.69 257.65,-223.06 255.99,-222.39 254.37,-221.69 252.79,-220.96 251.26,-220.2 249.79,-219.41 248.37,-218.59 247.02,-217.75 245.75,-216.89 244.55,-216.01 243.44,-215.11 242.42,-214.2 241.49,-213.28 240.67,-212.35 239.96,-211.41 239.36,-210.47 238.88,-209.53 238.53,-208.59 238.31,-207.65 238.22,-206.72 238.27,-205.8 238.47,-204.89 238.81,-203.99 239.3,-203.11 239.93,-202.25 240.72,-201.41 241.65,-200.59 242.74,-199.8 243.97,-199.04 245.35,-198.31 246.88,-197.61 248.54,-196.94 250.34,-196.31 252.26,-195.71 254.31,-195.16 256.48,-194.65 258.75,-194.18 261.13,-193.75 263.59,-193.36 266.14,-193.03 268.76,-192.74 271.45,-192.49 274.18,-192.3 276.96,-192.15 279.76,-192.05 282.59,-192 285.41,-192 288.24,-192.05"/>
<text text-anchor="middle" x="284" y="-206.9" font-family="Times,serif" font-size="12.00">Executable</text>
</g>
<!-- legendNode1 -->
<g id="node2" class="node">
<title>legendNode1</title>
<polygon fill="none" stroke="black" points="126.11,-121.54 126.11,-136.46 93.83,-147 48.17,-147 15.89,-136.46 15.89,-121.54 48.17,-111 93.83,-111 126.11,-121.54"/>
<text text-anchor="middle" x="71" y="-125.9" font-family="Times,serif" font-size="12.00">Static Library</text>
</g>
<!-- legendNode0&#45;&gt;legendNode1 -->
<g id="edge1" class="edge">
<title>legendNode0&#45;&gt;legendNode1</title>
<path fill="none" stroke="black" d="M249.25,-196.51C219.22,-185.68 174.67,-169.49 136,-155 129.15,-152.43 121.91,-149.68 114.84,-146.98"/>
<polygon fill="black" stroke="black" points="115.96,-143.66 105.37,-143.35 113.45,-150.2 115.96,-143.66"/>
</g>
<!-- legendNode2 -->
<g id="node3" class="node">
<title>legendNode2</title>
<polygon fill="none" stroke="black" points="267.12,-121.54 267.12,-136.46 232.49,-147 183.51,-147 148.88,-136.46 148.88,-121.54 183.51,-111 232.49,-111 267.12,-121.54"/>
<polygon fill="none" stroke="black" points="271.1,-118.58 271.1,-139.42 233.08,-151 182.92,-151 144.9,-139.42 144.9,-118.58 182.92,-107 233.08,-107 271.1,-118.58"/>
<text text-anchor="middle" x="208" y="-125.9" font-family="Times,serif" font-size="12.00">Shared Library</text>
</g>
<!-- legendNode0&#45;&gt;legendNode2 -->
<g id="edge2" class="edge">
<title>legendNode0&#45;&gt;legendNode2</title>
<path fill="none" stroke="black" d="M268.25,-192.63C258.77,-182.77 246.42,-169.94 235.38,-158.46"/>
<polygon fill="black" stroke="black" points="237.81,-155.94 228.35,-151.16 232.76,-160.79 237.81,-155.94"/>
</g>
<!-- legendNode3 -->
<g id="node4" class="node">
<title>legendNode3</title>
<polygon fill="none" stroke="black" points="420.94,-121.54 420.94,-136.46 384.66,-147 333.34,-147 297.06,-136.46 297.06,-121.54 333.34,-111 384.66,-111 420.94,-121.54"/>
<polygon fill="none" stroke="black" points="424.93,-118.54 424.93,-139.46 385.22,-151 332.78,-151 293.07,-139.46 293.07,-118.54 332.78,-107 385.22,-107 424.93,-118.54"/>
<polygon fill="none" stroke="black" points="428.93,-115.54 428.93,-142.46 385.79,-155 332.21,-155 289.07,-142.46 289.07,-115.54 332.21,-103 385.79,-103 428.93,-115.54"/>
<text text-anchor="middle" x="359" y="-125.9" font-family="Times,serif" font-size="12.00">Module Library</text>
</g>
<!-- legendNode0&#45;&gt;legendNode3 -->
<!-- legendNode7 -->
<g id="node8" class="node">
<title>legendNode7</title>
<polygon fill="none" stroke="black" points="533.5,-147 446.5,-147 446.5,-111 533.5,-111 533.5,-147"/>
<text text-anchor="middle" x="490" y="-125.9" font-family="Times,serif" font-size="12.00">Custom Target</text>
</g>
<!-- legendNode0&#45;&gt;legendNode7 -->
<!-- legendNode4 -->
<g id="node5" class="node">
<title>legendNode4</title>
<polygon fill="none" stroke="black" points="165.64,-39.56 91,-52 16.36,-39.56 44.87,-19.44 137.13,-19.44 165.64,-39.56"/>
<text text-anchor="middle" x="91" y="-30.9" font-family="Times,serif" font-size="12.00">Interface Library</text>
</g>
<!-- legendNode1&#45;&gt;legendNode4 -->
<g id="edge4" class="edge">
<title>legendNode1&#45;&gt;legendNode4</title>
<path fill="none" stroke="black" stroke-dasharray="5,2" d="M74.67,-110.94C77.65,-97.09 81.9,-77.32 85.32,-61.42"/>
<polygon fill="black" stroke="black" points="88.74,-62.15 87.42,-51.64 81.9,-60.68 88.74,-62.15"/>
<text text-anchor="middle" x="109" y="-73.8" font-family="Times,serif" font-size="14.00">Interface</text>
</g>
<!-- legendNode5 -->
<g id="node6" class="node">
<title>legendNode5</title>
<polygon fill="none" stroke="black" points="306.68,-34 275.84,-52 214.16,-52 183.32,-34 214.16,-16 275.84,-16 306.68,-34"/>
<text text-anchor="middle" x="245" y="-30.9" font-family="Times,serif" font-size="12.00">Object Library</text>
</g>
<!-- legendNode2&#45;&gt;legendNode5 -->
<g id="edge5" class="edge">
<title>legendNode2&#45;&gt;legendNode5</title>
<path fill="none" stroke="black" stroke-dasharray="1,5" d="M216.4,-106.9C221.73,-93.49 228.68,-76.01 234.4,-61.64"/>
<polygon fill="black" stroke="black" points="237.68,-62.87 238.12,-52.28 231.17,-60.28 237.68,-62.87"/>
<text text-anchor="middle" x="251" y="-73.8" font-family="Times,serif" font-size="14.00">Private</text>
</g>
<!-- legendNode6 -->
<g id="node7" class="node">
<title>legendNode6</title>
<polygon fill="none" stroke="black" points="465.25,-29.99 451.34,-45.22 395,-52 338.66,-45.22 324.75,-29.99 363.74,-17.78 426.26,-17.78 465.25,-29.99"/>
<text text-anchor="middle" x="395" y="-30.9" font-family="Times,serif" font-size="12.00">Unknown Library</text>
</g>
<!-- legendNode3&#45;&gt;legendNode6 -->
<g id="edge6" class="edge">
<title>legendNode3&#45;&gt;legendNode6</title>
<path fill="none" stroke="black" d="M368.84,-102.59C373.88,-89.56 380.01,-73.73 385.07,-60.66"/>
<polygon fill="black" stroke="black" points="388.34,-61.89 388.69,-51.31 381.81,-59.37 388.34,-61.89"/>
</g>
<!-- node0 -->
<g id="node9" class="node">
<title>node0</title>
<polygon fill="none" stroke="black" points="604,-228 550,-228 550,-192 604,-192 604,-228"/>
<text text-anchor="middle" x="577" y="-206.9" font-family="Times,serif" font-size="12.00">gen</text>
</g>
<!-- node1 -->
<g id="node10" class="node">
<title>node1</title>
<polygon fill="none" stroke="black" points="681.77,-111.05 684.27,-111.15 686.75,-111.3 689.18,-111.49 691.58,-111.74 693.91,-112.03 696.18,-112.36 698.38,-112.75 700.5,-113.18 702.52,-113.65 704.45,-114.16 706.28,-114.71 708,-115.31 709.6,-115.94 711.08,-116.61 712.43,-117.31 713.66,-118.04 714.76,-118.8 715.73,-119.59 716.56,-120.41 717.27,-121.25 717.83,-122.11 718.27,-122.99 718.57,-123.89 718.74,-124.8 718.79,-125.72 718.71,-126.65 718.52,-127.59 718.2,-128.53 717.78,-129.47 717.24,-130.41 716.61,-131.35 715.88,-132.28 715.05,-133.2 714.14,-134.11 713.15,-135.01 712.08,-135.89 710.95,-136.75 709.75,-137.59 708.49,-138.41 707.17,-139.2 705.81,-139.96 704.4,-140.69 702.96,-141.39 701.48,-142.06 699.96,-142.69 698.43,-143.29 696.86,-143.84 695.28,-144.35 693.68,-144.82 692.06,-145.25 690.43,-145.64 688.79,-145.97 687.15,-146.26 685.49,-146.51 683.83,-146.7 682.17,-146.85 680.5,-146.95 678.83,-147 677.17,-147 675.5,-146.95 673.83,-146.85 672.17,-146.7 670.51,-146.51 668.85,-146.26 667.21,-145.97 665.57,-145.64 663.94,-145.25 662.32,-144.82 660.72,-144.35 659.14,-143.84 657.57,-143.29 656.04,-142.69 654.52,-142.06 653.04,-141.39 651.6,-140.69 650.19,-139.96 648.83,-139.2 647.51,-138.41 646.25,-137.59 645.05,-136.75 643.92,-135.89 642.85,-135.01 641.86,-134.11 640.95,-133.2 640.12,-132.28 639.39,-131.35 638.76,-130.41 638.22,-129.47 637.8,-128.53 637.48,-127.59 637.29,-126.65 637.21,-125.72 637.26,-124.8 637.43,-123.89 637.73,-122.99 638.17,-122.11 638.73,-121.25 639.44,-120.41 640.27,-119.59 641.24,-118.8 642.34,-118.04 643.57,-117.31 644.92,-116.61 646.4,-115.94 648,-115.31 649.72,-114.71 651.55,-114.16 653.48,-113.65 655.5,-113.18 657.62,-112.75 659.82,-112.36 662.09,-112.03 664.42,-111.74 666.82,-111.49 669.25,-111.3 671.73,-111.15 674.23,-111.05 676.74,-111 679.26,-111 681.77,-111.05"/>
<text text-anchor="middle" x="678" y="-125.9" font-family="Times,serif" font-size="12.00">generator</text>
</g>
<!-- node0&#45;&gt;node1 -->
<g id="edge8" class="edge">
<title>node0&#45;&gt;node1</title>
<path fill="none" stroke="black" d="M598.92,-191.86C614.43,-179.72 635.31,-163.39 651.72,-150.56"/>
<polygon fill="black" stroke="black" points="654.12,-153.12 659.84,-144.2 649.81,-147.61 654.12,-153.12"/>
</g>
<!-- node2 -->
<g id="node11" class="node">
<title>node2</title>
<polygon fill="none" stroke="black" points="680,-228 622,-228 622,-192 680,-192 680,-228"/>
<text text-anchor="middle" x="651" y="-206.9" font-family="Times,serif" font-size="12.00">my&#45;all&#45;1</text>
</g>
<!-- node2&#45;&gt;node1 -->
<g id="edge9" class="edge">
<title>node2&#45;&gt;node1</title>
<path fill="none" stroke="black" d="M656.86,-191.86C660.39,-181.54 664.95,-168.18 668.93,-156.53"/>
<polygon fill="black" stroke="black" points="672.32,-157.43 672.25,-146.84 665.7,-155.17 672.32,-157.43"/>
</g>
<!-- node3 -->
<g id="node12" class="node">
<title>node3</title>
<polygon fill="none" stroke="black" points="756,-228 698,-228 698,-192 756,-192 756,-228"/>
<text text-anchor="middle" x="727" y="-206.9" font-family="Times,serif" font-size="12.00">my&#45;all&#45;2</text>
</g>
<!-- node3&#45;&gt;node1 -->
<g id="edge10" class="edge">
<title>node3&#45;&gt;node1</title>
<path fill="none" stroke="black" d="M716.37,-191.86C709.68,-181.08 700.95,-167 693.5,-154.99"/>
<polygon fill="black" stroke="black" points="696.35,-152.95 688.11,-146.3 690.41,-156.64 696.35,-152.95"/>
</g>
<!-- node4 -->
<g id="node13" class="node">
<title>node4</title>
<polygon fill="none" stroke="black" points="808.98,-192.05 810.96,-192.15 812.91,-192.3 814.84,-192.49 816.73,-192.74 818.58,-193.03 820.37,-193.36 822.11,-193.75 823.78,-194.18 825.39,-194.65 826.91,-195.16 828.36,-195.71 829.71,-196.31 830.98,-196.94 832.15,-197.61 833.22,-198.31 834.19,-199.04 835.06,-199.8 835.83,-200.59 836.49,-201.41 837.04,-202.25 837.49,-203.11 837.83,-203.99 838.07,-204.89 838.21,-205.8 838.25,-206.72 838.18,-207.65 838.03,-208.59 837.78,-209.53 837.44,-210.47 837.02,-211.41 836.52,-212.35 835.94,-213.28 835.29,-214.2 834.57,-215.11 833.79,-216.01 832.94,-216.89 832.05,-217.75 831.1,-218.59 830.1,-219.41 829.06,-220.2 827.98,-220.96 826.87,-221.69 825.73,-222.39 824.56,-223.06 823.36,-223.69 822.15,-224.29 820.91,-224.84 819.66,-225.35 818.39,-225.82 817.12,-226.25 815.83,-226.64 814.53,-226.97 813.23,-227.26 811.92,-227.51 810.61,-227.7 809.3,-227.85 807.98,-227.95 806.66,-228 805.34,-228 804.02,-227.95 802.7,-227.85 801.39,-227.7 800.08,-227.51 798.77,-227.26 797.47,-226.97 796.17,-226.64 794.88,-226.25 793.61,-225.82 792.34,-225.35 791.09,-224.84 789.85,-224.29 788.64,-223.69 787.44,-223.06 786.27,-222.39 785.13,-221.69 784.02,-220.96 782.94,-220.2 781.9,-219.41 780.9,-218.59 779.95,-217.75 779.06,-216.89 778.21,-216.01 777.43,-215.11 776.71,-214.2 776.06,-213.28 775.48,-212.35 774.98,-211.41 774.56,-210.47 774.22,-209.53 773.97,-208.59 773.82,-207.65 773.75,-206.72 773.79,-205.8 773.93,-204.89 774.17,-203.99 774.51,-203.11 774.96,-202.25 775.51,-201.41 776.17,-200.59 776.94,-199.8 777.81,-199.04 778.78,-198.31 779.85,-197.61 781.02,-196.94 782.29,-196.31 783.64,-195.71 785.09,-195.16 786.61,-194.65 788.22,-194.18 789.89,-193.75 791.63,-193.36 793.42,-193.03 795.27,-192.74 797.16,-192.49 799.09,-192.3 801.04,-192.15 803.02,-192.05 805,-192 807,-192 808.98,-192.05"/>
<text text-anchor="middle" x="806" y="-206.9" font-family="Times,serif" font-size="12.00">myapp</text>
</g>
<!-- node4&#45;&gt;node1 -->
<g id="edge12" class="edge">
<title>node4&#45;&gt;node1</title>
<path fill="none" stroke="black" d="M784,-195.42C763.05,-182.49 731.35,-162.93 708.07,-148.56"/>
<polygon fill="black" stroke="black" points="709.64,-145.41 699.29,-143.14 705.96,-151.37 709.64,-145.41"/>
</g>
<!-- node5 -->
<g id="node14" class="node">
<title>node5</title>
<polygon fill="none" stroke="black" points="843.15,-121.54 843.15,-136.46 821.39,-147 790.61,-147 768.85,-136.46 768.85,-121.54 790.61,-111 821.39,-111 843.15,-121.54"/>
<polygon fill="none" stroke="black" points="847.13,-119.03 847.13,-138.97 822.3,-151 789.7,-151 764.87,-138.97 764.87,-119.03 789.7,-107 822.3,-107 847.13,-119.03"/>
<text text-anchor="middle" x="806" y="-125.9" font-family="Times,serif" font-size="12.00">fmt::fmt</text>
</g>
<!-- node4&#45;&gt;node5 -->
<g id="edge11" class="edge">
<title>node4&#45;&gt;node5</title>
<path fill="none" stroke="black" stroke-dasharray="1,5" d="M806,-191.86C806,-182.87 806,-171.59 806,-161.12"/>
<polygon fill="black" stroke="black" points="809.5,-161.05 806,-151.05 802.5,-161.05 809.5,-161.05"/>
</g>
</g>
</svg>
